<?xml version="1.0" encoding="utf-8"?>
<!-- Svg Vector Icons : http://www.onlinewebfonts.com/icon -->
<!DOCTYPE svg PUBLIC "-//W3C//DTD SVG 1.1//EN" "http://www.w3.org/Graphics/SVG/1.1/DTD/svg11.dtd">
<svg version="1.1" xmlns="http://www.w3.org/2000/svg" xmlns:xlink="http://www.w3.org/1999/xlink" x="0px" y="0px" viewBox="0 0 1000 1000" enable-background="new 0 0 1000 1000" xml:space="preserve">
<metadata> Svg Vector Icons : http://www.onlinewebfonts.com/icon </metadata>
<g><g transform="translate(0.000000,511.000000) scale(0.100000,-0.100000)"><path d="M2311.4,4587.4c-641.4-93.8-1166-568.6-1313.5-1185.2c-21.1-90-191.5-1307.7-381-2709.2C289.6-1738.7,272.3-1859.3,214.9-1993.3C126.8-2202,100-2372.4,100-2755.3c0-367.6,26.8-547.6,109.1-744.8c124.5-298.7,388.7-582.1,675.9-725.7c335.1-168.5-7.7-155.1,4116.5-155.1c4124.2,0,3781.5-13.4,4116.5,155.1c277.6,139.8,543.8,419.3,668.2,704.6c86.2,197.2,101.5,294.8,111.1,693.1c11.5,448-11.5,608.9-122.5,859.7l-67,153.2L9367,750.4c-187.6,1411.1-354.2,2619.3-373.4,2686.3c-137.9,536.1-568.7,959.2-1137.3,1120.1l-145.5,42.1l-2642.2,1.9C3615.3,4602.7,2374.6,4597,2311.4,4587.4z M7724.2,4166.2c55.5-11.5,174.2-55.5,264.2-97.6c281.5-134,520.8-417.4,603.1-714.2c23-86.2,643.3-4658.4,633.8-4675.6c-1.9-1.9-63.2,26.8-135.9,61.3c-300.6,145.5,49.8,134-4087.8,134c-4137.6,0-3787.2,11.5-4087.8-134c-72.8-34.5-137.9-59.4-141.7-55.5c-13.4,11.5,587.8,4468.8,622.3,4616.3c88.1,392.5,451.9,762,842.5,855.8c93.8,23,543.8,26.8,2749.5,28.7C6820.5,4187.2,7653.4,4181.5,7724.2,4166.2z M8754.3-1562.5c350.4-118.7,597.4-367.6,702.7-712.3c28.7-93.8,34.5-180,34.5-478.7c0-321.7-5.7-379.1-42.1-497.8c-105.3-331.2-367.6-584-712.2-687.4c-93.8-26.8-451.9-30.6-3741.2-30.6h-3634l-143.6,47.9c-325.5,109.1-562.9,348.5-664.4,670.1c-36.4,118.7-42.1,176.2-42.1,497.8c0,298.7,5.7,384.8,34.5,478.7c122.5,400.2,455.7,687.4,865.4,742.9c32.5,3.8,1673.4,7.7,3647.4,5.7C8493.9-1528,8652.8-1530,8754.3-1562.5z"/><path d="M5018.8,3555.4c-915.2-101.5-1654.3-786.9-1826.6-1690.6c-36.4-191.5-36.4-578.2-1.9-764c76.6-402.1,254.7-748.6,538-1047.3c289.1-304.4,603.1-488.2,1030.1-601.2c132.1-34.5,206.8-40.2,482.5-40.2c291,1.9,346.5,5.7,517,51.7c227.9,61.3,562.9,222.1,739.1,356.1c425.1,323.6,725.7,831,802.2,1359.4c34.5,233.6,15.3,599.3-44,827.1c-178.1,681.6-714.2,1248.4-1382.4,1459C5598.9,3551.6,5286.8,3584.1,5018.8,3555.4z M5572.1,3122.7c306.3-63.2,591.6-214.4,823.3-436.5c672.1-643.3,691.2-1700.2,42.1-2366.5c-329.3-340.8-729.5-507.4-1206.2-505.5c-444.2,1.9-808,143.6-1133.5,444.2c-597.4,553.3-704.6,1468.5-252.7,2150.2c235.5,356.1,628,622.3,1051.1,712.3C5074.3,3159,5388.3,3161,5572.1,3122.7z"/><path d="M5116.4,2737.8c-113-59.3-114.9-65.1-114.9-790.8c0-618.4,1.9-664.4,36.4-719.9c49.8-82.3,147.4-114.9,235.5-78.5c34.5,15.3,214.4,126.4,398.3,247c225.9,147.4,344.6,237.4,359.9,271.9c38.3,86.2,28.7,158.9-32.5,225.9c-47.9,53.6-68.9,63.2-139.8,63.2c-67-1.9-114.9-23-264.2-120.6l-181.9-116.8l-9.6,467.2c-9.6,469.1-9.6,469.1-57.4,517C5281.1,2768.4,5198.7,2779.9,5116.4,2737.8z"/><path d="M8013.3-2159.9c-229.7-63.2-379.1-216.3-438.4-451.9c-53.6-206.8,11.5-423.2,174.2-580.2c124.5-120.6,264.2-170.4,449.9-160.8c164.7,9.6,273.8,57.4,388.7,166.6c172.3,160.8,231.7,432.7,147.4,656.7C8629.8-2248,8298.6-2079.5,8013.3-2159.9z M8262.2-2573.5c113-51.7,139.8-222.1,49.8-315.9c-90-95.7-270-70.8-321.7,42.1C7906.1-2659.6,8076.5-2489.2,8262.2-2573.5z"/></g></g>
</svg>